Coordinates
version=1
nRows=21
nColumns=33
inDegrees=yes

Units are S.I. units (second, meters, Newtons, ...)
Angles are in degrees.

endheader
time	ground_thorax_rot_x	ground_thorax_rot_y	ground_thorax_rot_z	ground_thorax_tx	ground_thorax_ty	ground_thorax_tz	clav_prot_r	clav_elev_r	scapula_abduction_r	scapula_elevation_r	scapula_upward_rot_r	scapula_winging_r	shoulder_elv_r	plane_of_elev_r	axial_rot_r	elbow_flexion_r	pro_sup_r	wrist_flex_r	wrist_dev_r	clav_prot_l	clav_elev_l	scapula_abduction_l	scapula_elevation_l	scapula_upward_rot_l	scapula_winging_l	shoulder_elv_l	plane_of_elev_l	axial_rot_l	elbow_flexion_l	pro_sup_l	wrist_flex_l	wrist_dev_l
      2.59000000	     16.24581420	     48.89176048	      6.87131673	     -0.01305697	      1.02174317	     -0.05673366	    -28.63648085	     17.29172750	    -21.99941697	      9.86903508	     45.00000000	    -17.14845157	     71.27114294	    -69.50434145	     93.78878941	     73.82537646	    -27.09399446	     11.80075190	     -2.63684606	     25.43609077	    -28.21501824	    -45.00000000	      5.64148871	    -30.75341724	     10.63444270	     50.58900958	      6.26096957	    -17.22176909	     39.07030138	     10.93945973	     41.36338823	     -5.59373703
      2.60000000	     16.21142977	     48.69595150	      6.89051014	     -0.01295956	      1.02160023	     -0.05677198	    -28.38972904	     17.56055623	    -21.75747376	     10.10649866	     45.00000000	    -17.03014617	     67.38017869	    -69.28737738	     90.16782064	     72.55847782	    -27.47885335	     11.55447458	     -2.52329612	     25.51831027	    -28.78347887	    -45.00000000	      5.78391879	    -31.64798668	     10.26504570	     50.99189002	      7.34255898	    -15.80276415	     37.16405737	     11.76344930	     41.24757273	     -5.83327813
      2.61000000	     15.78336667	     48.70136812	      7.32924696	     -0.01272521	      1.02224253	     -0.05703394	    -28.36451216	     17.05251803	    -21.39073506	      9.70854669	     45.00000000	    -17.01513623	     66.53932845	    -69.08203706	     89.66318043	     71.56374217	    -27.59482593	     10.93314380	     -2.40955072	     25.60332292	    -29.26159280	    -45.00000000	      6.13974541	    -31.76739274	      9.90983956	     50.95611530	      7.41413952	    -15.05563453	     35.66372395	     12.03591666	     41.11920799	     -5.61167713
      2.62000000	     16.15142559	     48.76063104	      7.06448410	     -0.01248726	      1.02131297	     -0.05728860	    -28.13766727	     17.59364760	    -21.35097240	     10.15692871	     45.00000000	    -16.91366802	     63.30028668	    -68.79824481	     86.28244489	     70.57787019	    -28.12406029	     10.25786298	     -2.01353188	     25.66374388	    -29.73467592	    -45.00000000	      6.22389817	    -32.60691760	      9.60449672	     50.98814161	      9.11847619	    -13.51348987	     33.42742439	     12.95286898	     42.00585981	     -5.52992207
      2.63000000	     15.75104638	     48.88531170	      7.38085286	     -0.01213867	      1.02215423	     -0.05755899	    -28.17912050	     16.99159734	    -21.04110277	      9.67891649	     45.00000000	    -16.92484817	     62.63442547	    -68.72460540	     85.89537681	     69.47994955	    -28.19564668	      9.88871884	     -2.04435468	     25.76454490	    -30.27183584	    -45.00000000	      6.64285208	    -32.69637160	      9.19546424	     51.15140397	      9.08549392	    -13.04248650	     32.06827427	     13.26279352	     41.50839371	     -5.32715212
      2.64000000	     16.21875355	     48.80465143	      7.01618021	     -0.01202011	      1.02107399	     -0.05764371	    -27.89815034	     17.75555416	    -21.04871899	     10.30879568	     45.00000000	    -16.80227906	     58.47050242	    -68.11020931	     81.85954401	     68.22219768	    -28.89385260	      9.51025314	     -1.61219675	     25.80272604	    -30.74282171	    -45.00000000	      6.58444406	    -33.91435322	      8.90699550	     51.45627953	     11.17880953	    -10.73489934	     29.71221959	     14.52302097	     42.18518653	     -5.49102580
      2.65000000	     16.02738022	     48.64810601	      7.14574415	     -0.01198472	      1.02096847	     -0.05749022	    -27.62703333	     18.04140686	    -20.77232132	     10.56188636	     45.00000000	    -16.67615939	     54.49351793	    -67.77311447	     78.39913924	     66.55084481	    -29.38698235	      9.34681886	     -1.51428484	     25.83282744	    -31.20149888	    -45.00000000	      6.55257435	    -35.03436547	      8.61453921	     52.33871455	     12.30243709	     -9.25010253	     28.16319948	     15.90102843	     41.96641647	     -6.04462660
      2.66000000	     15.73730420	     48.84188415	      7.41570910	     -0.01158041	      1.02151961	     -0.05776334	    -27.67552084	     17.59319148	    -20.56507182	     10.20310003	     45.00000000	    -16.69954988	     53.87408728	    -67.63596356	     78.10056351	     65.44857751	    -29.49654644	      8.84113204	     -1.45894918	     25.91839944	    -31.63172109	    -45.00000000	      6.90207691	    -35.07462420	      8.27737318	     52.35966635	     12.36058345	     -8.71699551	     26.92719024	     16.21717087	     41.74670395	     -5.80253571
      2.67000000	     15.85037690	     48.76628356	      7.15637426	     -0.01129469	      1.02164377	     -0.05804940	    -27.67320854	     17.37846806	    -20.42462351	     10.03412771	     45.00000000	    -16.69818673	     52.26747124	    -66.92620866	     76.85973731	     64.27134630	    -29.92347074	      8.54618191	     -1.08995906	     25.98555830	    -32.04100011	    -45.00000000	      7.14287651	    -35.36066197	      7.96647388	     52.44186404	     13.21845206	     -6.95263679	     25.14425864	     16.80616937	     41.53888394	     -5.59840644
      2.68000000	     16.09519359	     48.86471132	      7.18708015	     -0.01132333	      1.02051995	     -0.05779749	    -27.23498636	     18.39857095	    -20.33505537	     10.88394200	     45.00000000	    -16.49424483	     48.06557669	    -66.62964656	     72.94724847	     62.65560112	    -31.11478283	      8.48685629	     -0.93458071	     25.96374788	    -32.60547659	    -45.00000000	      6.89163279	    -37.30789713	      7.63599580	     53.72142181	     15.31644797	     -5.01775061	     23.32265927	     18.55693389	     41.95040745	     -5.84244857
      2.69000000	     15.74602810	     49.04157030	      7.33563656	     -0.01094589	      1.02126972	     -0.05800984	    -27.35646274	     17.80276451	    -20.15390056	     10.40069024	     45.00000000	    -16.55490431	     47.30891998	    -66.42917448	     72.62306822	     61.40144615	    -31.24679771	      8.07826421	     -0.89464604	     26.04555535	    -32.99184553	    -45.00000000	      7.21801120	    -37.31720192	      7.32359885	     53.98659017	     15.27955023	     -4.51465837	     22.31012146	     18.88712580	     41.51318262	     -5.72657184
      2.70000000	     15.67284529	     49.25269247	      7.21953407	     -0.01062467	      1.02170444	     -0.05818039	    -27.49358684	     17.48021483	    -20.18180171	     10.13228339	     45.00000000	    -16.61888074	     46.12341912	    -65.95476828	     71.81763446	     60.06839831	    -31.63625008	      7.91870427	     -0.59034158	     26.12701619	    -33.42006281	    -45.00000000	      7.52786920	    -37.46777506	      6.98112085	     54.21464103	     15.79212708	     -3.20501722	     20.80329029	     19.43857721	     41.08665744	     -5.45769962
      2.71000000	     15.90947371	     49.08970232	      7.00744110	     -0.01055402	      1.02121673	     -0.05811064	    -27.22738028	     17.92062682	    -20.00903794	     10.50668646	     45.00000000	    -16.49584118	     43.17932331	    -65.05587261	     69.63098984	     58.37486812	    -32.72436957	      7.99810028	     -0.17645234	     26.10969713	    -33.85430930	    -45.00000000	      7.42453666	    -38.73126068	      6.70449209	     55.17899502	     17.33276465	     -0.63015510	     19.16880079	     20.59275044	     40.90808812	     -5.48994136
      2.72000000	     15.87594050	     49.21589715	      7.30586886	     -0.01064612	      1.02033199	     -0.05775758	    -26.74741992	     18.82328569	    -19.77634792	     11.27009715	     45.00000000	    -16.26715667	     39.26342851	    -64.83216313	     66.26992272	     56.54820313	    -34.21484801	      8.02936413	     -0.28661274	     26.00048862	    -34.41920636	    -45.00000000	      7.06453241	    -40.98022891	      6.37095205	     57.20163446	     19.02965183	      0.79899561	     17.88320829	     22.34826761	     41.24770532	     -6.10836581
      2.73000000	     15.86658846	     49.39194896	      7.22899547	     -0.01032381	      1.02062647	     -0.05812857	    -26.76713457	     18.44329387	    -19.55634921	     10.96673100	     45.00000000	    -16.28685893	     38.88311602	    -64.62700345	     66.21300450	     55.48452210	    -34.29120715	      7.66906111	     -0.25708544	     26.07854773	    -34.74135748	    -45.00000000	      7.35822043	    -40.93677857	      6.10302622	     57.32941452	     19.03895196	      0.84802183	     17.16028537	     22.62285445	     41.01756019	     -5.85762315
      2.74000000	     15.62084023	     49.60776242	      7.15515030	     -0.00987276	      1.02128182	     -0.05815433	    -27.01369099	     18.00087572	    -19.69230561	     10.59148478	     45.00000000	    -16.40018004	     37.69822794	    -64.05054901	     65.62153142	     53.97551425	    -34.72818199	      7.60424855	      0.09143464	     26.13469214	    -35.01112709	    -45.00000000	      7.57214566	    -40.98711874	      5.87901682	     57.67731141	     19.16948176	      1.94818599	     16.32026205	     22.89785540	     40.32602078	     -5.68241537
      2.75000000	     15.84115784	     49.54729955	      7.34612806	     -0.01005223	      1.02017685	     -0.05791055	    -26.36972254	     19.18135297	    -19.36257773	     11.59251768	     45.00000000	    -16.09025068	     33.78446556	    -63.40056888	     62.64932327	     51.89484584	    -36.71086710	      8.18630834	      0.20705147	     25.99882560	    -35.38160138	    -45.00000000	      7.22188209	    -42.77291282	      5.67034306	     59.02825952	     20.58245393	      3.38448139	     15.27280092	     23.59523032	     40.28053311	     -5.67368397
      2.76000000	     15.84707160	     49.65733075	      7.17035647	     -0.00974608	      1.02052233	     -0.05830943	    -26.38406997	     18.77158704	    -19.10872975	     11.26574447	     45.00000000	    -16.11312622	     33.35541509	    -63.15658913	     62.57439849	     50.85960129	    -36.80489601	      7.73848170	      0.16691414	     26.04799358	    -35.58917266	    -45.00000000	      7.40180897	    -42.77165985	      5.49746602	     59.25245051	     20.53577062	      3.23416581	     14.94439558	     23.73184262	     40.07188512	     -5.55078235
      2.77000000	     15.56932562	     49.78568194	      7.18227228	     -0.00937708	      1.02106084	     -0.05833701	    -26.54405047	     18.44502085	    -19.16962699	     10.99051246	     45.00000000	    -16.18919301	     32.07778041	    -62.58462775	     62.00533560	     49.37671921	    -37.31072363	      7.62262046	      0.36530303	     26.05939796	    -35.70865757	    -45.00000000	      7.45771304	    -42.89812938	      5.40106973	     59.64327578	     20.46839709	      3.60162772	     14.70921602	     23.67995002	     39.53186955	     -5.54687368
      2.78000000	     15.67032050	     49.64324337	      7.40346388	     -0.00955319	      1.02014469	     -0.05824204	    -25.93337152	     19.45308988	    -18.78442439	     11.85297966	     45.00000000	    -15.89409804	     28.63816592	    -61.75232877	     59.89476441	     47.19868078	    -39.28533508	      8.33173533	      0.45242426	     25.93614694	    -35.75869629	    -45.00000000	      7.13819059	    -43.86971333	      5.41096778	     60.16971318	     21.25610493	      4.12511465	     14.20687376	     23.38849199	     39.37206558	     -5.31651504
      2.79000000	     15.85626125	     49.87076461	      7.30408217	     -0.00890126	      1.02012478	     -0.05850097	    -25.96834392	     19.29251265	    -18.73347718	     11.72169439	     45.00000000	    -15.91574925	     28.64824462	    -61.80185214	     59.78302924	     46.64682584	    -39.32643192	      8.13090484	      0.35775630	     25.94068296	    -35.84343567	    -45.00000000	      7.17091477	    -43.97846975	      5.34476392	     60.08173560	     21.31648051	      4.06112873	     14.16391057	     23.40964651	     39.36685524	     -5.28036473
